<svg xmlns="http://www.w3.org/2000/svg" xmlns:xlink="http://www.w3.org/1999/xlink" width="500" zoomAndPan="magnify" viewBox="0 0 375 374.999991" height="500" preserveAspectRatio="xMidYMid meet" version="1.0"><defs><clipPath id="1cbc7c5cab"><path d="M 110 72.824219 L 266 72.824219 L 266 228 L 110 228 Z M 110 72.824219 " clip-rule="nonzero"/></clipPath><clipPath id="267730bd03"><path d="M 83.433594 163 L 167 163 L 167 302.324219 L 83.433594 302.324219 Z M 83.433594 163 " clip-rule="nonzero"/></clipPath><clipPath id="0c9df7871e"><path d="M 208 163 L 291.933594 163 L 291.933594 302.324219 L 208 302.324219 Z M 208 163 " clip-rule="nonzero"/></clipPath></defs><g clip-path="url(#1cbc7c5cab)"><path fill="#333333" d="M 225.289062 217.644531 C 230.210938 214.90625 234.84375 211.625 239.054688 207.886719 C 243.265625 204.152344 247.066406 199.953125 250.347656 195.414062 C 255.03125 188.964844 258.671875 181.875 261.164062 174.335938 C 263.738281 166.542969 265.042969 158.394531 265.042969 150.117188 C 265.042969 139.871094 263.0625 129.914062 259.160156 120.519531 C 255.390625 111.449219 249.988281 103.269531 243.105469 96.210938 C 235.976562 88.898438 227.625 83.148438 218.277344 79.125 C 208.605469 74.960938 198.3125 72.847656 187.6875 72.847656 C 181.433594 72.847656 175.210938 73.597656 169.191406 75.074219 C 163.34375 76.511719 157.664062 78.636719 152.304688 81.394531 C 139.867188 87.789062 129.375 97.453125 121.96875 109.335938 C 114.355469 121.550781 110.328125 135.65625 110.328125 150.117188 C 110.328125 163.921875 114.019531 177.46875 120.996094 189.296875 C 127.769531 200.773438 137.449219 210.371094 148.996094 217.050781 C 156.445312 221.347656 164.507812 224.351562 172.953125 225.984375 C 174.722656 226.320312 176.429688 226.589844 178.164062 226.808594 C 181.273438 227.191406 184.476562 227.386719 187.6875 227.386719 C 196.101562 227.386719 204.378906 226.042969 212.289062 223.390625 C 216.804688 221.878906 221.179688 219.945312 225.289062 217.644531 Z M 178.71875 221.351562 C 168.730469 209.832031 168.730469 209.832031 169.207031 196.359375 C 169.644531 184.285156 176.949219 178.632812 181.75 177.773438 C 182.65625 177.613281 185.679688 177.265625 186.625 179.566406 C 188.921875 185.1875 193.964844 190.25 199.472656 192.460938 C 203.78125 194.191406 208.175781 194.167969 212.179688 192.390625 C 212.210938 192.378906 212.277344 192.347656 212.519531 192.476562 C 215.101562 193.839844 219.203125 202.527344 221.609375 214.433594 C 218.167969 216.253906 214.550781 217.804688 210.832031 219.050781 C 203.394531 221.546875 195.605469 222.808594 187.6875 222.808594 C 184.960938 222.808594 182.242188 222.660156 179.597656 222.367188 C 179.296875 222.019531 179.003906 221.679688 178.71875 221.351562 Z M 241.902344 131.527344 C 240.75 129.679688 239.058594 127.898438 237.269531 126.011719 C 233.621094 122.164062 229.851562 118.1875 230.390625 113.605469 C 230.851562 109.699219 234.460938 105.394531 241.125 100.792969 C 241.125 100.789062 241.128906 100.789062 241.128906 100.785156 C 253.609375 114.253906 260.460938 131.699219 260.460938 150.117188 C 260.460938 164.816406 256.125 178.878906 247.890625 190.941406 C 234.394531 181.945312 223.160156 170.5 220.828125 163.238281 C 219.175781 158.074219 220.535156 155.601562 221.90625 154.027344 C 223.867188 151.769531 227.152344 150.199219 230.628906 148.53125 C 235.699219 146.105469 240.945312 143.59375 242.957031 138.410156 C 243.792969 136.25 243.445312 134 241.902344 131.527344 Z M 187.6875 77.425781 C 206.578125 77.425781 224.292969 84.527344 237.871094 97.476562 C 230.394531 102.773438 226.453125 107.890625 225.839844 113.070312 C 225.046875 119.78125 229.980469 124.980469 233.941406 129.160156 C 236.746094 132.117188 239.398438 134.914062 238.683594 136.757812 C 237.328125 140.246094 233.109375 142.265625 228.648438 144.40625 C 224.902344 146.199219 221.03125 148.050781 218.445312 151.023438 C 215.328125 154.609375 214.679688 159.0625 216.464844 164.632812 C 218.273438 170.269531 223.574219 176.351562 227.703125 180.460938 C 232.648438 185.386719 238.792969 190.363281 245.195312 194.648438 C 239.859375 201.523438 233.230469 207.46875 225.789062 212.046875 C 224.730469 207.214844 223.335938 202.570312 221.765625 198.707031 C 219.527344 193.195312 217.136719 189.738281 214.664062 188.429688 C 212.835938 187.46875 211.296875 187.773438 210.324219 188.207031 C 207.433594 189.488281 204.359375 189.492188 201.183594 188.214844 C 196.835938 186.46875 192.691406 182.296875 190.863281 177.832031 C 190.09375 175.953125 188.675781 174.542969 186.761719 173.753906 C 185.074219 173.058594 183.0625 172.890625 180.945312 173.269531 C 177.023438 173.96875 173.097656 176.453125 170.179688 180.085938 C 166.777344 184.328125 164.855469 189.898438 164.628906 196.195312 C 164.375 203.289062 164.304688 207.492188 165.816406 211.390625 C 166.996094 214.429688 169.082031 217.15625 172.566406 221.234375 C 165.796875 219.800781 159.304688 217.429688 153.21875 214.160156 C 154.933594 210.203125 154.722656 205.796875 152.578125 201.027344 C 150.535156 196.484375 147.023438 192.207031 144.203125 188.773438 C 142.882812 187.164062 141.632812 185.644531 140.773438 184.386719 C 139.699219 182.816406 139.660156 182.273438 139.65625 182.21875 C 139.65625 180.980469 140.667969 179.445312 141.839844 177.667969 C 143.449219 175.222656 145.457031 172.171875 145.910156 168.136719 C 146.429688 163.527344 144.828125 158.625 141.015625 153.144531 C 136.359375 146.457031 134.863281 142.699219 135.675781 139.734375 C 137.074219 134.652344 145.960938 129.808594 162.953125 122.09375 C 167.972656 119.8125 170.910156 116.441406 171.683594 112.082031 C 173.257812 103.214844 165.175781 92.347656 157.226562 84.089844 C 166.710938 79.722656 177.175781 77.425781 187.6875 77.425781 Z M 114.914062 150.117188 C 114.914062 122.761719 130.042969 97.988281 154.40625 85.464844 C 154.433594 85.449219 154.460938 85.4375 154.492188 85.421875 C 154.527344 85.742188 154.382812 86.085938 153.996094 86.222656 C 153.875 86.261719 153.757812 86.304688 153.640625 86.347656 C 153.597656 86.476562 153.503906 86.589844 153.351562 86.675781 C 156.328125 89.730469 159.953125 93.796875 162.75 98.035156 C 166.289062 103.402344 167.777344 107.863281 167.171875 111.28125 C 166.667969 114.109375 164.667969 116.285156 161.054688 117.925781 C 141.988281 126.582031 133.160156 131.609375 131.257812 138.523438 C 129.839844 143.671875 132.5 148.9375 137.253906 155.757812 C 144.199219 165.746094 141.054688 170.53125 138.007812 175.15625 C 136.5 177.449219 135.074219 179.613281 135.074219 182.21875 C 135.074219 184.875 137.417969 187.726562 140.660156 191.675781 C 145.421875 197.476562 151.199219 204.515625 149.449219 211.058594 C 149.558594 211.160156 149.664062 211.265625 149.769531 211.371094 C 150.042969 211.648438 150.023438 211.984375 149.867188 212.238281 C 128.265625 199.074219 114.914062 175.429688 114.914062 150.117188 Z M 162.003906 120.011719 Z M 162.003906 120.011719 " fill-opacity="1" fill-rule="nonzero"/></g><g clip-path="url(#267730bd03)"><path fill="#333333" d="M 160.082031 242.066406 L 149.328125 231.328125 C 145.816406 227.820312 141.144531 225.886719 136.179688 225.886719 C 133.078125 225.886719 130.160156 224.679688 127.96875 222.488281 L 116.398438 210.933594 C 114.128906 208.667969 110.976562 207.597656 107.871094 207.914062 L 104.777344 173.125 C 104.542969 170.457031 103.324219 167.996094 101.347656 166.1875 C 99.371094 164.382812 96.804688 163.386719 94.128906 163.386719 C 88.230469 163.386719 83.433594 168.179688 83.433594 174.070312 L 83.433594 233.660156 C 83.433594 237.644531 84.988281 241.390625 87.808594 244.207031 L 118.53125 274.894531 C 119.53125 275.894531 120.082031 277.222656 120.082031 278.632812 L 120.082031 282.847656 C 120.082031 284.113281 121.109375 285.136719 122.375 285.136719 C 123.640625 285.136719 124.664062 284.113281 124.664062 282.847656 L 124.664062 278.632812 C 124.664062 276 123.636719 273.523438 121.773438 271.65625 L 91.050781 240.96875 C 89.09375 239.015625 88.019531 236.421875 88.019531 233.660156 L 88.019531 174.070312 C 88.019531 170.703125 90.757812 167.964844 94.128906 167.964844 C 97.316406 167.964844 99.929688 170.355469 100.214844 173.527344 L 103.40625 209.445312 C 102.730469 209.867188 102.105469 210.363281 101.535156 210.933594 C 99.550781 212.914062 98.457031 215.550781 98.457031 218.355469 C 98.457031 221.15625 99.550781 223.792969 101.535156 225.777344 L 126.117188 250.328125 C 126.566406 250.777344 127.152344 251 127.738281 251 C 128.324219 251 128.910156 250.777344 129.359375 250.328125 C 130.253906 249.433594 130.253906 247.984375 129.359375 247.09375 L 104.777344 222.539062 C 103.65625 221.421875 103.042969 219.933594 103.042969 218.355469 C 103.042969 216.773438 103.65625 215.289062 104.777344 214.167969 C 105.296875 213.652344 105.894531 213.242188 106.554688 212.945312 C 106.609375 212.921875 106.660156 212.894531 106.710938 212.867188 C 106.769531 212.851562 106.828125 212.832031 106.886719 212.8125 C 109.058594 212 111.519531 212.53125 113.15625 214.167969 L 124.726562 225.726562 C 127.785156 228.78125 131.851562 230.464844 136.179688 230.464844 C 139.921875 230.464844 143.441406 231.921875 146.089844 234.566406 L 156.839844 245.304688 C 160.226562 248.6875 162.09375 253.1875 162.09375 257.972656 L 162.09375 300 C 162.09375 301.265625 163.121094 302.289062 164.386719 302.289062 C 165.652344 302.289062 166.675781 301.265625 166.675781 300 L 166.675781 257.972656 C 166.675781 255.003906 166.101562 252.109375 164.960938 249.363281 C 163.824219 246.621094 162.183594 244.167969 160.082031 242.066406 Z M 160.082031 242.066406 " fill-opacity="1" fill-rule="nonzero"/></g><g clip-path="url(#0c9df7871e)"><path fill="#333333" d="M 281.246094 163.386719 C 278.566406 163.386719 276.003906 164.382812 274.027344 166.1875 C 272.050781 167.996094 270.832031 170.457031 270.59375 173.125 L 267.503906 207.914062 C 264.398438 207.597656 261.242188 208.667969 258.976562 210.933594 L 247.40625 222.488281 C 245.214844 224.679688 242.296875 225.886719 239.195312 225.886719 C 234.226562 225.886719 229.558594 227.820312 226.042969 231.328125 L 215.292969 242.066406 C 213.191406 244.167969 211.546875 246.621094 210.410156 249.363281 C 209.273438 252.105469 208.695312 255.003906 208.695312 257.972656 L 208.695312 300 C 208.695312 301.265625 209.722656 302.289062 210.988281 302.289062 C 212.253906 302.289062 213.28125 301.265625 213.28125 300 L 213.28125 257.972656 C 213.28125 253.1875 215.144531 248.6875 218.53125 245.304688 L 229.285156 234.566406 C 231.933594 231.921875 235.453125 230.464844 239.195312 230.464844 C 243.523438 230.464844 247.589844 228.78125 250.648438 225.726562 L 262.21875 214.167969 C 263.855469 212.53125 266.316406 212 268.488281 212.8125 C 268.546875 212.832031 268.605469 212.851562 268.660156 212.867188 C 268.714844 212.894531 268.765625 212.921875 268.820312 212.945312 C 269.480469 213.238281 270.078125 213.652344 270.597656 214.167969 C 272.90625 216.476562 272.90625 220.230469 270.597656 222.539062 L 246.015625 247.09375 C 245.121094 247.984375 245.121094 249.433594 246.015625 250.328125 C 246.464844 250.777344 247.050781 251 247.636719 251 C 248.222656 251 248.808594 250.777344 249.257812 250.328125 L 273.835938 225.777344 C 277.933594 221.683594 277.933594 215.023438 273.835938 210.933594 C 273.269531 210.363281 272.640625 209.867188 271.96875 209.445312 L 275.160156 173.527344 C 275.441406 170.355469 278.058594 167.964844 281.246094 167.964844 C 284.617188 167.964844 287.355469 170.703125 287.355469 174.070312 L 287.355469 233.660156 C 287.355469 236.421875 286.28125 239.015625 284.324219 240.96875 L 253.601562 271.660156 C 251.734375 273.523438 250.707031 276 250.707031 278.632812 L 250.707031 285.230469 C 250.707031 286.492188 251.734375 287.515625 253 287.515625 C 254.265625 287.515625 255.292969 286.492188 255.292969 285.230469 L 255.292969 278.632812 C 255.292969 277.222656 255.839844 275.894531 256.839844 274.894531 L 287.566406 244.207031 C 290.386719 241.390625 291.9375 237.644531 291.9375 233.660156 L 291.9375 174.070312 C 291.9375 168.179688 287.140625 163.386719 281.246094 163.386719 Z M 281.246094 163.386719 " fill-opacity="1" fill-rule="nonzero"/></g></svg>