<svg xmlns="http://www.w3.org/2000/svg" xmlns:xlink="http://www.w3.org/1999/xlink" width="500" zoomAndPan="magnify" viewBox="0 0 375 374.999991" height="500" preserveAspectRatio="xMidYMid meet" version="1.0"><defs><clipPath id="92722d18a1"><path d="M 154 56.914062 L 221 56.914062 L 221 123 L 154 123 Z M 154 56.914062 " clip-rule="nonzero"/></clipPath><clipPath id="412a1b30c0"><path d="M 47.207031 164 L 113 164 L 113 230 L 47.207031 230 Z M 47.207031 164 " clip-rule="nonzero"/></clipPath><clipPath id="a59b88d7e6"><path d="M 154 272 L 221 272 L 221 337.414062 L 154 337.414062 Z M 154 272 " clip-rule="nonzero"/></clipPath><clipPath id="ada05125a2"><path d="M 262 164 L 327.707031 164 L 327.707031 230 L 262 230 Z M 262 164 " clip-rule="nonzero"/></clipPath></defs><path fill="#000000" d="M 187.457031 98.34375 C 179.824219 98.34375 173.617188 92.132812 173.617188 84.503906 C 173.617188 76.871094 179.824219 70.664062 187.457031 70.664062 C 195.085938 70.664062 201.296875 76.871094 201.296875 84.503906 C 201.296875 92.132812 195.09375 98.34375 187.457031 98.34375 Z M 187.457031 77.03125 C 183.339844 77.03125 179.992188 80.386719 179.992188 84.496094 C 179.992188 88.609375 183.34375 91.960938 187.457031 91.960938 C 191.574219 91.960938 194.921875 88.609375 194.921875 84.496094 C 194.921875 80.386719 191.574219 77.03125 187.457031 77.03125 Z M 187.457031 77.03125 " fill-opacity="1" fill-rule="nonzero"/><path fill="#000000" d="M 207.054688 114.726562 C 205.535156 114.726562 204.195312 113.644531 203.917969 112.101562 C 202.496094 104.125 195.570312 98.34375 187.457031 98.34375 C 179.347656 98.34375 172.425781 104.132812 170.988281 112.101562 C 170.675781 113.835938 169.019531 114.988281 167.292969 114.675781 C 165.558594 114.363281 164.40625 112.707031 164.714844 110.980469 C 166.691406 99.964844 176.253906 91.976562 187.457031 91.976562 C 198.664062 91.976562 208.226562 99.96875 210.191406 110.992188 C 210.5 112.726562 209.339844 114.382812 207.613281 114.6875 C 207.429688 114.714844 207.238281 114.726562 207.054688 114.726562 Z M 207.054688 114.726562 " fill-opacity="1" fill-rule="nonzero"/><g clip-path="url(#92722d18a1)"><path fill="#000000" d="M 187.457031 122.199219 C 169.460938 122.199219 154.808594 107.554688 154.808594 89.550781 C 154.808594 71.550781 169.460938 56.914062 187.457031 56.914062 C 205.460938 56.914062 220.101562 71.554688 220.101562 89.558594 C 220.101562 107.5625 205.460938 122.199219 187.457031 122.199219 Z M 187.457031 63.289062 C 172.972656 63.289062 161.183594 75.070312 161.183594 89.558594 C 161.183594 104.050781 172.964844 115.832031 187.457031 115.832031 C 201.945312 115.832031 213.726562 104.050781 213.726562 89.558594 C 213.726562 75.070312 201.941406 63.289062 187.457031 63.289062 Z M 187.457031 63.289062 " fill-opacity="1" fill-rule="nonzero"/></g><path fill="#000000" d="M 79.851562 205.949219 C 72.222656 205.949219 66.011719 199.738281 66.011719 192.105469 C 66.011719 184.476562 72.222656 178.265625 79.851562 178.265625 C 87.484375 178.265625 93.691406 184.476562 93.691406 192.105469 C 93.691406 199.738281 87.484375 205.949219 79.851562 205.949219 Z M 79.851562 184.636719 C 75.734375 184.636719 72.386719 187.988281 72.386719 192.101562 C 72.386719 196.210938 75.742188 199.566406 79.851562 199.566406 C 83.964844 199.566406 87.316406 196.210938 87.316406 192.101562 C 87.316406 187.988281 83.972656 184.636719 79.851562 184.636719 Z M 79.851562 184.636719 " fill-opacity="1" fill-rule="nonzero"/><path fill="#000000" d="M 99.441406 222.335938 C 97.925781 222.335938 96.585938 221.253906 96.304688 219.710938 C 94.886719 211.734375 87.960938 205.953125 79.847656 205.953125 C 71.738281 205.953125 64.8125 211.742188 63.378906 219.710938 C 63.066406 221.445312 61.410156 222.59375 59.683594 222.285156 C 57.949219 221.972656 56.792969 220.316406 57.105469 218.589844 C 59.082031 207.574219 68.644531 199.585938 79.847656 199.585938 C 91.054688 199.585938 100.617188 207.578125 102.578125 218.601562 C 102.886719 220.335938 101.730469 221.992188 100.003906 222.300781 C 99.820312 222.320312 99.632812 222.335938 99.441406 222.335938 Z M 99.441406 222.335938 " fill-opacity="1" fill-rule="nonzero"/><g clip-path="url(#412a1b30c0)"><path fill="#000000" d="M 79.851562 229.808594 C 61.851562 229.808594 47.207031 215.164062 47.207031 197.164062 C 47.207031 179.167969 61.851562 164.515625 79.851562 164.515625 C 97.855469 164.515625 112.5 179.160156 112.5 197.164062 C 112.492188 215.164062 97.847656 229.808594 79.851562 229.808594 Z M 79.851562 170.890625 C 65.363281 170.890625 53.582031 182.679688 53.582031 197.164062 C 53.582031 211.648438 65.363281 223.433594 79.851562 223.433594 C 94.34375 223.433594 106.125 211.648438 106.125 197.164062 C 106.125 182.679688 94.335938 170.890625 79.851562 170.890625 Z M 79.851562 170.890625 " fill-opacity="1" fill-rule="nonzero"/></g><path fill="#000000" d="M 187.457031 313.558594 C 179.824219 313.558594 173.617188 307.347656 173.617188 299.71875 C 173.617188 292.085938 179.824219 285.878906 187.457031 285.878906 C 195.085938 285.878906 201.296875 292.085938 201.296875 299.71875 C 201.296875 307.347656 195.09375 313.558594 187.457031 313.558594 Z M 187.457031 292.246094 C 183.339844 292.246094 179.992188 295.59375 179.992188 299.710938 C 179.992188 303.828125 183.34375 307.175781 187.457031 307.175781 C 191.574219 307.175781 194.921875 303.828125 194.921875 299.710938 C 194.921875 295.59375 191.574219 292.246094 187.457031 292.246094 Z M 187.457031 292.246094 " fill-opacity="1" fill-rule="nonzero"/><path fill="#000000" d="M 207.054688 329.941406 C 205.535156 329.941406 204.195312 328.855469 203.917969 327.316406 C 202.496094 319.347656 195.570312 313.558594 187.457031 313.558594 C 179.347656 313.558594 172.425781 319.347656 170.988281 327.316406 C 170.675781 329.046875 169.019531 330.203125 167.292969 329.890625 C 165.558594 329.578125 164.40625 327.921875 164.714844 326.191406 C 166.691406 315.183594 176.253906 307.1875 187.457031 307.1875 C 198.664062 307.1875 208.226562 315.183594 210.191406 326.207031 C 210.5 327.9375 209.339844 329.597656 207.613281 329.902344 C 207.429688 329.929688 207.238281 329.941406 207.054688 329.941406 Z M 207.054688 329.941406 " fill-opacity="1" fill-rule="nonzero"/><g clip-path="url(#a59b88d7e6)"><path fill="#000000" d="M 187.457031 337.414062 C 169.460938 337.414062 154.808594 322.769531 154.808594 304.765625 C 154.808594 286.769531 169.453125 272.121094 187.457031 272.121094 C 205.460938 272.121094 220.101562 286.761719 220.101562 304.765625 C 220.101562 322.769531 205.460938 337.414062 187.457031 337.414062 Z M 187.457031 278.5 C 172.972656 278.5 161.183594 290.28125 161.183594 304.773438 C 161.183594 319.261719 172.972656 331.039062 187.457031 331.039062 C 201.941406 331.039062 213.726562 319.25 213.726562 304.765625 C 213.726562 290.28125 201.941406 278.5 187.457031 278.5 Z M 187.457031 278.5 " fill-opacity="1" fill-rule="nonzero"/></g><path fill="#000000" d="M 295.066406 205.949219 C 287.433594 205.949219 281.226562 199.738281 281.226562 192.105469 C 281.226562 184.476562 287.433594 178.265625 295.066406 178.265625 C 302.695312 178.265625 308.90625 184.476562 308.90625 192.105469 C 308.90625 199.738281 302.695312 205.949219 295.066406 205.949219 Z M 295.066406 184.636719 C 290.949219 184.636719 287.601562 187.988281 287.601562 192.101562 C 287.601562 196.210938 290.949219 199.566406 295.066406 199.566406 C 299.183594 199.566406 302.53125 196.210938 302.53125 192.101562 C 302.53125 187.988281 299.183594 184.636719 295.066406 184.636719 Z M 295.066406 184.636719 " fill-opacity="1" fill-rule="nonzero"/><path fill="#000000" d="M 314.65625 222.335938 C 313.140625 222.335938 311.800781 221.253906 311.519531 219.710938 C 310.097656 211.734375 303.175781 205.953125 295.058594 205.953125 C 286.949219 205.953125 280.027344 211.742188 278.59375 219.710938 C 278.28125 221.445312 276.628906 222.597656 274.894531 222.285156 C 273.160156 221.972656 272.007812 220.316406 272.320312 218.589844 C 274.296875 207.574219 283.859375 199.585938 295.058594 199.585938 C 306.265625 199.585938 315.828125 207.578125 317.792969 218.601562 C 318.105469 220.335938 316.945312 221.992188 315.21875 222.300781 C 315.03125 222.320312 314.839844 222.335938 314.65625 222.335938 Z M 314.65625 222.335938 " fill-opacity="1" fill-rule="nonzero"/><g clip-path="url(#ada05125a2)"><path fill="#000000" d="M 295.058594 229.808594 C 277.0625 229.808594 262.414062 215.164062 262.414062 197.164062 C 262.414062 179.167969 277.058594 164.515625 295.058594 164.515625 C 313.0625 164.515625 327.707031 179.160156 327.707031 197.164062 C 327.707031 215.164062 313.0625 229.808594 295.058594 229.808594 Z M 295.058594 170.890625 C 280.574219 170.890625 268.789062 182.671875 268.789062 197.164062 C 268.789062 211.652344 280.570312 223.433594 295.058594 223.433594 C 309.550781 223.433594 321.332031 211.648438 321.332031 197.164062 C 321.332031 182.679688 309.542969 170.890625 295.058594 170.890625 Z M 295.058594 170.890625 " fill-opacity="1" fill-rule="nonzero"/></g><path fill="#000000" d="M 92.527344 155.183594 C 92.042969 155.183594 91.542969 155.070312 91.078125 154.832031 C 89.511719 154.035156 88.886719 152.117188 89.683594 150.546875 C 101.054688 128.222656 119.914062 110.304688 142.785156 100.085938 C 143.195312 99.898438 143.640625 99.804688 144.085938 99.804688 C 145.847656 99.804688 147.273438 101.230469 147.273438 102.992188 C 147.273438 104.335938 146.441406 105.488281 145.261719 105.957031 C 123.769531 115.59375 106.054688 132.449219 95.363281 153.4375 C 94.800781 154.550781 93.6875 155.183594 92.527344 155.183594 Z M 92.527344 155.183594 " fill-opacity="1" fill-rule="nonzero"/><path fill="#000000" d="M 282.375 155.152344 C 281.085938 155.152344 279.96875 154.386719 279.472656 153.285156 C 268.710938 132.257812 250.925781 115.421875 229.382812 105.847656 C 228.230469 105.367188 227.414062 104.226562 227.414062 102.902344 C 227.414062 101.140625 228.835938 99.714844 230.601562 99.714844 L 230.609375 99.714844 C 231.054688 99.714844 231.496094 99.808594 231.902344 99.988281 C 254.851562 110.167969 273.792969 128.109375 285.222656 150.511719 C 285.453125 150.957031 285.574219 151.453125 285.574219 151.957031 C 285.5625 153.71875 284.132812 155.152344 282.375 155.152344 Z M 282.375 155.152344 " fill-opacity="1" fill-rule="nonzero"/><path fill="#000000" d="M 140.714844 299.167969 C 140.230469 299.167969 139.746094 299.0625 139.304688 298.84375 C 117 287.929688 98.875 269.5625 88.269531 247.125 C 87.515625 245.53125 88.199219 243.628906 89.785156 242.878906 C 91.378906 242.125 93.277344 242.808594 94.03125 244.394531 C 104.015625 265.507812 121.0625 282.796875 142.039062 293.082031 C 143.136719 293.585938 143.902344 294.695312 143.902344 295.980469 C 143.894531 297.746094 142.472656 299.167969 140.714844 299.167969 Z M 140.714844 299.167969 " fill-opacity="1" fill-rule="nonzero"/><path fill="#000000" d="M 237.753906 297.359375 C 236.621094 297.359375 235.515625 296.746094 234.945312 295.675781 C 234.109375 294.125 234.695312 292.195312 236.246094 291.359375 C 256.945312 280.253906 273.398438 262.246094 282.570312 240.664062 C 283.261719 239.046875 285.128906 238.292969 286.753906 238.976562 C 288.371094 239.664062 289.132812 241.539062 288.441406 243.160156 C 278.703125 266.070312 261.242188 285.1875 239.265625 296.976562 C 238.773438 297.238281 238.257812 297.359375 237.753906 297.359375 Z M 237.753906 297.359375 " fill-opacity="1" fill-rule="nonzero"/><path fill="#000000" d="M 282.375 155.144531 C 282.074219 155.144531 281.769531 155.101562 281.46875 155.011719 L 267.417969 150.867188 C 265.730469 150.371094 264.765625 148.597656 265.261719 146.910156 C 265.761719 145.21875 267.53125 144.257812 269.222656 144.753906 L 280.539062 148.09375 L 284.785156 138.046875 C 285.472656 136.429688 287.339844 135.667969 288.960938 136.351562 C 290.578125 137.039062 291.335938 138.90625 290.65625 140.527344 L 285.300781 153.195312 C 284.800781 154.40625 283.628906 155.144531 282.375 155.144531 Z M 282.375 155.144531 " fill-opacity="1" fill-rule="nonzero"/><path fill="#000000" d="M 139.164062 119.101562 C 138.789062 119.101562 138.40625 119.03125 138.03125 118.890625 C 136.386719 118.265625 135.5625 116.421875 136.1875 114.777344 L 140.007812 104.769531 L 130.417969 100.84375 C 128.789062 100.171875 128.007812 98.3125 128.679688 96.6875 C 129.347656 95.054688 131.203125 94.277344 132.835938 94.945312 L 145.304688 100.050781 C 146.90625 100.707031 147.6875 102.519531 147.078125 104.136719 L 142.148438 117.054688 C 141.660156 118.316406 140.453125 119.101562 139.164062 119.101562 Z M 139.164062 119.101562 " fill-opacity="1" fill-rule="nonzero"/><path fill="#000000" d="M 86.304688 261.734375 C 85.929688 261.734375 85.546875 261.671875 85.175781 261.523438 C 83.53125 260.898438 82.703125 259.0625 83.320312 257.414062 L 88.160156 244.632812 C 88.777344 243 90.59375 242.164062 92.234375 242.761719 L 105.589844 247.632812 C 107.238281 248.238281 108.09375 250.070312 107.496094 251.71875 C 106.890625 253.371094 105.058594 254.226562 103.410156 253.625 L 93.011719 249.839844 L 89.289062 259.675781 C 88.804688 260.949219 87.59375 261.734375 86.304688 261.734375 Z M 86.304688 261.734375 " fill-opacity="1" fill-rule="nonzero"/><path fill="#000000" d="M 250.519531 301.394531 C 250.199219 301.394531 249.875 301.34375 249.554688 301.246094 L 236.785156 297.210938 C 235.242188 296.726562 234.3125 295.164062 234.617188 293.578125 L 237.1875 280.082031 C 237.519531 278.355469 239.183594 277.21875 240.917969 277.546875 C 242.644531 277.875 243.78125 279.539062 243.453125 281.273438 L 241.414062 291.984375 L 251.480469 295.164062 C 253.15625 295.695312 254.085938 297.484375 253.558594 299.167969 C 253.125 300.527344 251.871094 301.394531 250.519531 301.394531 Z M 250.519531 301.394531 " fill-opacity="1" fill-rule="nonzero"/><path fill="#000000" d="M 151.136719 221.890625 C 150.679688 221.890625 150.21875 221.789062 149.785156 221.589844 C 148.664062 221.070312 147.949219 219.941406 147.949219 218.703125 L 147.949219 207.171875 C 136.265625 205.609375 127.226562 195.574219 127.226562 183.46875 C 127.226562 170.277344 137.953125 159.554688 151.136719 159.554688 L 186.894531 159.554688 C 200.085938 159.554688 210.808594 170.285156 210.808594 183.46875 C 210.808594 196.652344 200.078125 207.382812 186.894531 207.382812 L 169.6875 207.382812 L 153.183594 221.152344 C 152.597656 221.636719 151.871094 221.890625 151.136719 221.890625 Z M 151.136719 165.925781 C 141.46875 165.925781 133.601562 173.792969 133.601562 183.460938 C 133.601562 193.132812 141.46875 201 151.136719 201 C 152.898438 201 154.324219 202.429688 154.324219 204.1875 L 154.324219 211.890625 L 166.488281 201.738281 C 167.0625 201.261719 167.78125 201 168.527344 201 L 186.894531 201 C 196.566406 201 204.433594 193.132812 204.433594 183.460938 C 204.433594 173.792969 196.566406 165.925781 186.894531 165.925781 Z M 151.136719 165.925781 " fill-opacity="1" fill-rule="nonzero"/><path fill="#000000" d="M 225.144531 234.773438 C 224.414062 234.773438 223.683594 234.519531 223.105469 234.035156 L 207.753906 221.226562 L 191.757812 221.226562 C 181.839844 221.226562 172.960938 214.597656 170.15625 205.097656 C 169.65625 203.410156 170.621094 201.636719 172.308594 201.140625 C 174 200.644531 175.769531 201.605469 176.269531 203.296875 C 178.277344 210.097656 184.644531 214.851562 191.757812 214.851562 L 208.90625 214.851562 C 209.652344 214.851562 210.375 215.113281 210.949219 215.59375 L 221.957031 224.777344 L 221.957031 218.039062 C 221.957031 216.28125 223.386719 214.851562 225.144531 214.851562 C 229.46875 214.851562 233.527344 213.171875 236.582031 210.121094 C 239.636719 207.070312 241.3125 203.015625 241.3125 198.699219 C 241.3125 189.785156 234.058594 182.53125 225.144531 182.53125 L 207.207031 182.53125 C 205.445312 182.53125 204.019531 181.105469 204.019531 179.34375 C 204.019531 177.585938 205.445312 176.15625 207.207031 176.15625 L 225.144531 176.15625 C 237.578125 176.15625 247.6875 186.269531 247.6875 198.699219 C 247.6875 204.71875 245.339844 210.378906 241.089844 214.628906 C 237.59375 218.125 233.144531 220.328125 228.332031 221.011719 L 228.332031 231.585938 C 228.332031 232.824219 227.617188 233.953125 226.496094 234.476562 C 226.070312 234.671875 225.605469 234.773438 225.144531 234.773438 Z M 225.144531 234.773438 " fill-opacity="1" fill-rule="nonzero"/><path fill="#000000" d="M 154.375 186.648438 C 153.535156 186.648438 152.71875 186.3125 152.125 185.71875 C 151.980469 185.574219 151.84375 185.40625 151.722656 185.234375 C 151.609375 185.0625 151.515625 184.878906 151.4375 184.6875 C 151.355469 184.488281 151.289062 184.292969 151.253906 184.085938 C 151.207031 183.882812 151.1875 183.671875 151.1875 183.460938 C 151.1875 182.628906 151.535156 181.804688 152.125 181.210938 C 152.273438 181.066406 152.433594 180.933594 152.609375 180.816406 C 152.78125 180.703125 152.96875 180.601562 153.160156 180.523438 C 153.351562 180.441406 153.546875 180.382812 153.75 180.339844 C 154.167969 180.257812 154.585938 180.257812 155 180.339844 C 155.207031 180.382812 155.402344 180.441406 155.59375 180.523438 C 155.792969 180.601562 155.976562 180.703125 156.148438 180.816406 C 156.320312 180.933594 156.488281 181.066406 156.632812 181.210938 C 157.226562 181.804688 157.5625 182.628906 157.5625 183.460938 C 157.5625 183.671875 157.542969 183.882812 157.5 184.085938 C 157.460938 184.292969 157.398438 184.488281 157.320312 184.6875 C 157.238281 184.878906 157.144531 185.0625 157.027344 185.234375 C 156.914062 185.40625 156.78125 185.574219 156.632812 185.71875 C 156.488281 185.867188 156.320312 186 156.148438 186.113281 C 155.976562 186.230469 155.792969 186.332031 155.59375 186.40625 C 155.402344 186.492188 155.207031 186.546875 155 186.59375 C 154.796875 186.632812 154.585938 186.648438 154.375 186.648438 Z M 154.375 186.648438 " fill-opacity="1" fill-rule="nonzero"/><path fill="#000000" d="M 169.011719 186.648438 C 168.808594 186.648438 168.597656 186.632812 168.394531 186.59375 C 168.191406 186.546875 167.988281 186.492188 167.796875 186.40625 C 167.605469 186.332031 167.417969 186.230469 167.246094 186.113281 C 167.074219 186 166.910156 185.867188 166.761719 185.71875 C 166.617188 185.574219 166.484375 185.40625 166.367188 185.234375 C 166.253906 185.0625 166.152344 184.878906 166.074219 184.6875 C 165.992188 184.488281 165.933594 184.292969 165.890625 184.085938 C 165.851562 183.882812 165.824219 183.671875 165.824219 183.460938 C 165.824219 182.628906 166.171875 181.804688 166.761719 181.210938 C 166.910156 181.066406 167.074219 180.933594 167.246094 180.816406 C 167.417969 180.703125 167.605469 180.601562 167.796875 180.523438 C 167.988281 180.441406 168.191406 180.382812 168.394531 180.339844 C 169.429688 180.136719 170.53125 180.472656 171.269531 181.210938 C 171.863281 181.804688 172.199219 182.628906 172.199219 183.460938 C 172.199219 183.671875 172.183594 183.882812 172.144531 184.085938 C 172.097656 184.292969 172.042969 184.488281 171.957031 184.6875 C 171.882812 184.878906 171.78125 185.0625 171.664062 185.234375 C 171.550781 185.40625 171.417969 185.574219 171.269531 185.71875 C 170.675781 186.3125 169.855469 186.648438 169.011719 186.648438 Z M 169.011719 186.648438 " fill-opacity="1" fill-rule="nonzero"/><path fill="#000000" d="M 183.65625 186.648438 C 183.445312 186.648438 183.234375 186.632812 183.03125 186.59375 C 182.828125 186.546875 182.628906 186.492188 182.433594 186.40625 C 182.242188 186.332031 182.058594 186.230469 181.882812 186.113281 C 181.710938 186 181.546875 185.867188 181.398438 185.71875 C 180.808594 185.125 180.46875 184.304688 180.46875 183.460938 C 180.46875 183.257812 180.488281 183.046875 180.53125 182.84375 C 180.570312 182.640625 180.636719 182.4375 180.710938 182.246094 C 180.792969 182.054688 180.890625 181.867188 181.003906 181.695312 C 181.121094 181.523438 181.253906 181.359375 181.398438 181.210938 C 181.546875 181.066406 181.710938 180.933594 181.882812 180.816406 C 182.058594 180.703125 182.242188 180.601562 182.433594 180.523438 C 182.628906 180.441406 182.828125 180.382812 183.03125 180.339844 C 183.445312 180.257812 183.867188 180.257812 184.28125 180.339844 C 184.480469 180.382812 184.683594 180.441406 184.875 180.523438 C 185.066406 180.601562 185.25 180.703125 185.421875 180.816406 C 185.601562 180.933594 185.761719 181.066406 185.90625 181.210938 C 186.054688 181.359375 186.1875 181.523438 186.300781 181.695312 C 186.421875 181.867188 186.519531 182.054688 186.601562 182.246094 C 186.679688 182.4375 186.742188 182.640625 186.78125 182.84375 C 186.824219 183.046875 186.84375 183.257812 186.84375 183.460938 C 186.84375 184.304688 186.5 185.125 185.90625 185.71875 C 185.761719 185.867188 185.601562 186 185.421875 186.113281 C 185.25 186.230469 185.066406 186.332031 184.875 186.40625 C 184.683594 186.492188 184.480469 186.546875 184.28125 186.59375 C 184.070312 186.632812 183.859375 186.648438 183.65625 186.648438 Z M 183.65625 186.648438 " fill-opacity="1" fill-rule="nonzero"/></svg>