<svg xmlns="http://www.w3.org/2000/svg" xmlns:xlink="http://www.w3.org/1999/xlink" width="500" zoomAndPan="magnify" viewBox="0 0 375 374.999991" height="500" preserveAspectRatio="xMidYMid meet" version="1.0"><defs><clipPath id="7371d76854"><path d="M 64.261719 70.089844 L 311.011719 70.089844 L 311.011719 304.839844 L 64.261719 304.839844 Z M 64.261719 70.089844 " clip-rule="nonzero"/></clipPath></defs><g clip-path="url(#7371d76854)"><path fill="#000000" d="M 311.011719 188.480469 C 311.011719 164.027344 291.089844 144.136719 266.605469 144.136719 C 242.117188 144.136719 222.195312 164.027344 222.195312 188.480469 C 222.195312 201.78125 228.097656 213.722656 237.414062 221.859375 L 214.140625 237.589844 C 209.933594 233.652344 204.875 230.609375 199.242188 228.847656 C 199.210938 228.835938 199.183594 228.824219 199.15625 228.816406 C 196.117188 227.871094 192.902344 227.339844 189.597656 227.175781 L 189.597656 158.96875 C 196.457031 158.667969 202.917969 156.8125 208.632812 153.738281 C 208.675781 153.71875 208.714844 153.695312 208.757812 153.671875 C 222.617188 146.160156 232.046875 131.496094 232.046875 114.671875 C 232.046875 90.222656 212.125 70.328125 187.636719 70.328125 C 163.152344 70.328125 143.230469 90.222656 143.230469 114.671875 C 143.230469 131.496094 152.660156 146.160156 166.515625 153.671875 C 166.558594 153.695312 166.601562 153.71875 166.644531 153.738281 C 172.359375 156.8125 178.820312 158.667969 185.679688 158.96875 L 185.679688 227.171875 C 182.371094 227.339844 179.160156 227.871094 176.121094 228.816406 C 176.089844 228.824219 176.0625 228.835938 176.03125 228.84375 C 170.402344 230.609375 165.34375 233.652344 161.132812 237.585938 L 137.859375 221.855469 C 147.175781 213.722656 153.078125 201.78125 153.078125 188.480469 C 153.078125 164.027344 133.15625 144.132812 108.671875 144.132812 C 84.183594 144.132812 64.261719 164.027344 64.261719 188.480469 C 64.261719 205.304688 73.695312 219.96875 87.554688 227.484375 C 87.59375 227.503906 87.632812 227.527344 87.675781 227.546875 C 93.929688 230.910156 101.078125 232.824219 108.671875 232.824219 C 116.261719 232.824219 123.410156 230.910156 129.664062 227.546875 C 129.707031 227.527344 129.746094 227.503906 129.785156 227.484375 C 131.480469 226.566406 133.097656 225.535156 134.648438 224.414062 L 158.371094 240.445312 C 156.789062 242.261719 155.378906 244.222656 154.152344 246.3125 C 154.035156 246.460938 153.925781 246.613281 153.859375 246.789062 C 150.65625 252.425781 148.804688 258.921875 148.804688 265.847656 C 148.804688 272.777344 150.65625 279.269531 153.855469 284.90625 C 153.925781 285.089844 154.035156 285.246094 154.15625 285.398438 C 159 293.636719 166.777344 299.964844 176.070312 302.863281 C 176.117188 302.878906 176.164062 302.890625 176.207031 302.902344 C 179.824219 304.015625 183.65625 304.621094 187.632812 304.621094 C 191.609375 304.621094 195.445312 304.015625 199.058594 302.902344 C 199.105469 302.890625 199.148438 302.878906 199.191406 302.863281 C 208.480469 299.964844 216.242188 293.652344 221.089844 285.425781 C 221.222656 285.265625 221.335938 285.09375 221.410156 284.898438 C 224.613281 279.265625 226.460938 272.773438 226.460938 265.847656 C 226.460938 258.921875 224.613281 252.429688 221.410156 246.796875 C 221.339844 246.605469 221.226562 246.441406 221.101562 246.285156 C 219.878906 244.207031 218.472656 242.253906 216.898438 240.445312 L 240.617188 224.414062 C 242.167969 225.539062 243.789062 226.566406 245.484375 227.484375 C 245.523438 227.507812 245.558594 227.527344 245.601562 227.546875 C 251.859375 230.910156 259.007812 232.828125 266.597656 232.828125 C 274.1875 232.828125 281.339844 230.914062 287.59375 227.546875 C 287.636719 227.53125 287.671875 227.507812 287.714844 227.484375 C 301.582031 219.96875 311.011719 205.304688 311.011719 188.480469 Z M 68.179688 188.480469 C 68.179688 166.1875 86.34375 148.046875 108.671875 148.046875 C 131 148.046875 149.164062 166.183594 149.164062 188.480469 C 149.164062 202.667969 141.792969 215.148438 130.691406 222.367188 C 130.132812 214.898438 127.90625 196.988281 119.167969 188.777344 C 122.96875 185.710938 125.40625 181.027344 125.40625 175.78125 C 125.40625 166.570312 117.898438 159.074219 108.675781 159.074219 C 99.449219 159.074219 91.941406 166.570312 91.941406 175.78125 C 91.941406 181.027344 94.378906 185.710938 98.175781 188.777344 C 89.4375 196.988281 87.210938 214.898438 86.65625 222.367188 C 75.550781 215.148438 68.179688 202.667969 68.179688 188.480469 Z M 95.855469 175.785156 C 95.855469 168.726562 101.605469 162.988281 108.671875 162.988281 C 115.738281 162.988281 121.488281 168.726562 121.488281 175.785156 C 121.488281 182.839844 115.738281 188.582031 108.671875 188.582031 C 101.605469 188.582031 95.855469 182.839844 95.855469 175.785156 Z M 90.445312 224.539062 C 90.742188 219.191406 92.480469 198.28125 101.65625 190.929688 C 103.792969 191.921875 106.164062 192.492188 108.671875 192.492188 C 111.179688 192.492188 113.550781 191.921875 115.6875 190.929688 C 124.867188 198.28125 126.601562 219.191406 126.898438 224.539062 C 121.414062 227.316406 115.234375 228.914062 108.671875 228.914062 C 102.113281 228.914062 95.929688 227.316406 90.445312 224.539062 Z M 218.425781 282.257812 L 207.847656 282.257812 C 208.996094 277.445312 209.636719 272.625 209.769531 267.804688 L 222.453125 267.804688 C 222.160156 273 220.757812 277.90625 218.425781 282.257812 Z M 189.597656 300.609375 L 189.597656 286.167969 L 202.707031 286.167969 C 201.335938 290.5625 199.523438 294.953125 197.261719 299.332031 C 194.804688 300.035156 192.238281 300.464844 189.597656 300.609375 Z M 178.015625 299.332031 C 175.75 294.953125 173.941406 290.5625 172.570312 286.167969 L 185.679688 286.167969 L 185.679688 300.613281 C 183.035156 300.464844 180.46875 300.035156 178.015625 299.332031 Z M 152.824219 267.804688 L 165.503906 267.804688 C 165.640625 272.625 166.28125 277.445312 167.429688 282.257812 L 156.851562 282.257812 C 154.515625 277.90625 153.113281 273 152.824219 267.804688 Z M 156.847656 249.441406 L 167.433594 249.441406 C 166.28125 254.253906 165.640625 259.074219 165.503906 263.894531 L 152.824219 263.894531 C 153.113281 258.695312 154.515625 253.789062 156.847656 249.441406 Z M 172.644531 234.410156 C 170.945312 238.113281 169.578125 241.820312 168.480469 245.527344 L 159.328125 245.527344 C 162.746094 240.789062 167.320312 236.953125 172.644531 234.410156 Z M 185.679688 231.082031 L 185.679688 245.527344 L 172.574219 245.527344 C 173.945312 241.132812 175.753906 236.742188 178.015625 232.363281 C 180.46875 231.660156 183.035156 231.230469 185.679688 231.082031 Z M 197.257812 232.363281 C 199.519531 236.742188 201.332031 241.132812 202.703125 245.527344 L 189.597656 245.527344 L 189.597656 231.082031 C 192.238281 231.230469 194.804688 231.660156 197.257812 232.363281 Z M 189.597656 249.441406 L 203.808594 249.441406 C 205.019531 254.253906 205.683594 259.074219 205.828125 263.894531 L 189.597656 263.894531 Z M 185.679688 263.894531 L 169.445312 263.894531 C 169.59375 259.074219 170.253906 254.253906 171.464844 249.441406 L 185.679688 249.441406 Z M 169.445312 267.804688 L 185.679688 267.804688 L 185.679688 282.257812 L 171.464844 282.257812 C 170.253906 277.445312 169.59375 272.625 169.445312 267.804688 Z M 189.597656 282.257812 L 189.597656 267.804688 L 205.828125 267.804688 C 205.6875 272.625 205.023438 277.445312 203.8125 282.257812 Z M 209.769531 263.894531 C 209.632812 259.074219 208.992188 254.253906 207.84375 249.441406 L 218.425781 249.441406 C 220.757812 253.789062 222.160156 258.695312 222.453125 263.894531 Z M 206.796875 245.527344 C 205.699219 241.816406 204.332031 238.113281 202.632812 234.410156 C 207.957031 236.953125 212.53125 240.789062 215.953125 245.527344 Z M 169.410156 150.730469 C 169.707031 145.382812 171.433594 124.476562 180.625 117.125 C 182.761719 118.117188 185.132812 118.683594 187.636719 118.683594 C 190.144531 118.683594 192.515625 118.117188 194.65625 117.125 C 203.832031 124.472656 205.570312 145.378906 205.863281 150.730469 C 200.378906 153.507812 194.199219 155.105469 187.636719 155.105469 C 181.078125 155.109375 174.898438 153.507812 169.410156 150.730469 Z M 187.636719 114.773438 C 180.574219 114.773438 174.824219 109.03125 174.824219 101.976562 C 174.824219 94.921875 180.574219 89.179688 187.636719 89.179688 C 194.703125 89.179688 200.453125 94.921875 200.453125 101.976562 C 200.453125 109.03125 194.703125 114.773438 187.636719 114.773438 Z M 147.144531 114.671875 C 147.144531 92.375 165.3125 74.238281 187.636719 74.238281 C 209.964844 74.238281 228.128906 92.375 228.128906 114.671875 C 228.128906 128.859375 220.757812 141.34375 209.65625 148.5625 C 209.097656 141.089844 206.871094 123.179688 198.132812 114.96875 C 201.933594 111.902344 204.371094 107.222656 204.371094 101.972656 C 204.371094 92.761719 196.863281 85.265625 187.636719 85.265625 C 178.414062 85.265625 170.90625 92.761719 170.90625 101.972656 C 170.90625 107.21875 173.34375 111.902344 177.140625 114.96875 C 168.402344 123.179688 166.175781 141.089844 165.621094 148.558594 C 154.515625 141.34375 147.144531 128.859375 147.144531 114.671875 Z M 159.328125 286.167969 L 168.476562 286.167969 C 169.578125 289.878906 170.941406 293.585938 172.644531 297.285156 C 167.320312 294.738281 162.746094 290.90625 159.328125 286.167969 Z M 202.636719 297.28125 C 204.335938 293.582031 205.703125 289.878906 206.800781 286.167969 L 215.953125 286.167969 C 212.53125 290.90625 207.957031 294.738281 202.636719 297.28125 Z M 226.113281 188.480469 C 226.113281 166.1875 244.273438 148.046875 266.605469 148.046875 C 288.933594 148.046875 307.097656 166.1875 307.097656 188.480469 C 307.097656 202.667969 299.726562 215.148438 288.621094 222.367188 C 288.066406 214.898438 285.839844 196.988281 277.101562 188.777344 C 280.898438 185.710938 283.335938 181.027344 283.335938 175.78125 C 283.335938 166.570312 275.828125 159.074219 266.605469 159.074219 C 257.378906 159.074219 249.871094 166.570312 249.871094 175.78125 C 249.871094 181.027344 252.308594 185.710938 256.109375 188.777344 C 247.371094 196.988281 245.144531 214.898438 244.589844 222.367188 C 233.484375 215.148438 226.113281 202.667969 226.113281 188.480469 Z M 253.789062 175.785156 C 253.789062 168.726562 259.539062 162.988281 266.605469 162.988281 C 273.667969 162.988281 279.417969 168.726562 279.417969 175.785156 C 279.417969 182.839844 273.667969 188.582031 266.605469 188.582031 C 259.539062 188.582031 253.789062 182.839844 253.789062 175.785156 Z M 248.378906 224.539062 C 248.671875 219.191406 250.398438 198.289062 259.585938 190.929688 C 261.722656 191.921875 264.097656 192.492188 266.605469 192.492188 C 269.109375 192.492188 271.484375 191.921875 273.621094 190.929688 C 282.796875 198.28125 284.535156 219.191406 284.832031 224.539062 C 279.34375 227.316406 273.164062 228.914062 266.605469 228.914062 C 260.042969 228.914062 253.863281 227.316406 248.378906 224.539062 Z M 248.378906 224.539062 " fill-opacity="1" fill-rule="nonzero"/></g></svg>